<svg width="214" height="16" viewBox="0 0 214 16" fill="none" xmlns="http://www.w3.org/2000/svg">
<path d="M0.362926 15V1.18182H2.86612V12.9016H8.95206V15H0.362926ZM15.6048 15.2024C14.5657 15.2024 13.6683 14.9865 12.9126 14.5547C12.1615 14.1184 11.5835 13.5021 11.1786 12.706C10.7738 11.9053 10.5714 10.9629 10.5714 9.87891C10.5714 8.81286 10.7738 7.87725 11.1786 7.07209C11.5879 6.26243 12.1592 5.63269 12.8924 5.18288C13.6256 4.72857 14.487 4.50142 15.4766 4.50142C16.1153 4.50142 16.718 4.60488 17.2848 4.81179C17.8561 5.0142 18.3598 5.32907 18.7962 5.75639C19.237 6.18371 19.5833 6.72798 19.8352 7.3892C20.0871 8.04593 20.2131 8.8286 20.2131 9.73722V10.4862H11.7184V8.83984H17.8718C17.8673 8.37204 17.7661 7.95597 17.5682 7.59162C17.3703 7.22277 17.0936 6.93265 16.7383 6.72124C16.3874 6.50982 15.9781 6.40412 15.5103 6.40412C15.011 6.40412 14.5724 6.52557 14.1946 6.76847C13.8168 7.00687 13.5221 7.32173 13.3107 7.71307C13.1038 8.0999 12.9981 8.52498 12.9936 8.98828V10.4254C12.9936 11.0282 13.1038 11.5455 13.3242 11.9773C13.5446 12.4046 13.8527 12.733 14.2486 12.9624C14.6444 13.1873 15.1077 13.2997 15.6385 13.2997C15.9938 13.2997 16.3155 13.2502 16.6033 13.1513C16.8912 13.0478 17.1409 12.8971 17.3523 12.6992C17.5637 12.5013 17.7234 12.2562 17.8313 11.9638L20.1119 12.2202C19.9679 12.8229 19.6935 13.3492 19.2887 13.799C18.8884 14.2443 18.3756 14.5907 17.7504 14.8381C17.1251 15.081 16.4099 15.2024 15.6048 15.2024ZM22.3873 15V1.18182H24.8298V6.35014H24.931C25.057 6.09825 25.2346 5.83061 25.464 5.54723C25.6934 5.25935 26.0038 5.0142 26.3952 4.81179C26.7865 4.60488 27.2858 4.50142 27.893 4.50142C28.6937 4.50142 29.4156 4.70608 30.0589 5.11541C30.7066 5.52024 31.2194 6.12074 31.5972 6.9169C31.9796 7.70857 32.1707 8.68016 32.1707 9.83168C32.1707 10.9697 31.984 11.9368 31.6107 12.733C31.2374 13.5291 30.7291 14.1364 30.0858 14.5547C29.4426 14.973 28.7139 15.1822 27.8998 15.1822C27.306 15.1822 26.8135 15.0832 26.4221 14.8853C26.0308 14.6874 25.7159 14.449 25.4775 14.1701C25.2436 13.8867 25.0615 13.6191 24.931 13.3672H24.7893V15H22.3873ZM24.7826 9.81818C24.7826 10.4884 24.877 11.0754 25.066 11.5792C25.2594 12.083 25.536 12.4766 25.8959 12.7599C26.2602 13.0388 26.701 13.1783 27.2183 13.1783C27.7581 13.1783 28.2101 13.0343 28.5745 12.7464C28.9388 12.4541 29.2132 12.056 29.3976 11.5522C29.5866 11.0439 29.681 10.4659 29.681 9.81818C29.681 9.17495 29.5888 8.60369 29.4044 8.1044C29.22 7.60511 28.9456 7.21378 28.5812 6.9304C28.2169 6.64702 27.7626 6.50533 27.2183 6.50533C26.6965 6.50533 26.2535 6.64252 25.8891 6.9169C25.5248 7.19129 25.2481 7.57588 25.0592 8.07067C24.8748 8.56546 24.7826 9.14796 24.7826 9.81818ZM37.2294 15.2092C36.5727 15.2092 35.9812 15.0922 35.4549 14.8583C34.9331 14.6199 34.5193 14.2691 34.2134 13.8058C33.9121 13.3424 33.7614 12.7712 33.7614 12.092C33.7614 11.5072 33.8693 11.0237 34.0852 10.6413C34.3011 10.259 34.5958 9.95312 34.9691 9.72372C35.3424 9.49432 35.763 9.32114 36.2308 9.20419C36.7031 9.08274 37.1912 8.99503 37.695 8.94105C38.3022 8.87808 38.7947 8.82185 39.1726 8.77237C39.5504 8.71839 39.8248 8.63743 39.9957 8.52947C40.1712 8.41702 40.2589 8.24384 40.2589 8.00994V7.96946C40.2589 7.46117 40.1082 7.06759 39.8068 6.78871C39.5054 6.50982 39.0714 6.37038 38.5046 6.37038C37.9064 6.37038 37.4318 6.50083 37.081 6.76172C36.7346 7.02261 36.5007 7.33073 36.3793 7.68608L34.0987 7.36222C34.2786 6.73248 34.5755 6.2062 34.9893 5.78338C35.4032 5.35606 35.9092 5.03669 36.5075 4.82528C37.1057 4.60938 37.7669 4.50142 38.4911 4.50142C38.9904 4.50142 39.4875 4.5599 39.9822 4.67685C40.477 4.7938 40.9291 4.98722 41.3384 5.2571C41.7478 5.52249 42.0761 5.88459 42.3235 6.34339C42.5754 6.8022 42.7014 7.37571 42.7014 8.06392V15H40.3533V13.5763H40.2724C40.1239 13.8642 39.9148 14.1341 39.6449 14.386C39.3795 14.6334 39.0444 14.8336 38.6396 14.9865C38.2392 15.1349 37.7692 15.2092 37.2294 15.2092ZM37.8636 13.4144C38.3539 13.4144 38.779 13.3177 39.1388 13.1243C39.4987 12.9264 39.7753 12.6655 39.9688 12.3416C40.1667 12.0178 40.2656 11.6647 40.2656 11.2823V10.0611C40.1892 10.1241 40.0587 10.1825 39.8743 10.2365C39.6944 10.2905 39.492 10.3377 39.267 10.3782C39.0421 10.4187 38.8195 10.4547 38.5991 10.4862C38.3787 10.5176 38.1875 10.5446 38.0256 10.5671C37.6612 10.6166 37.3351 10.6976 37.0472 10.81C36.7594 10.9225 36.5322 11.0799 36.3658 11.2823C36.1993 11.4802 36.1161 11.7366 36.1161 12.0515C36.1161 12.5013 36.2803 12.8409 36.6087 13.0703C36.937 13.2997 37.3554 13.4144 37.8636 13.4144ZM47.5998 8.92756V15H45.1573V4.63636H47.4918V6.39737H47.6133C47.8517 5.81712 48.2318 5.35606 48.7536 5.0142C49.2798 4.67235 49.9298 4.50142 50.7035 4.50142C51.4187 4.50142 52.0417 4.65436 52.5724 4.96023C53.1077 5.2661 53.5215 5.70916 53.8139 6.28942C54.1108 6.86967 54.257 7.57363 54.2525 8.40128V15H51.81V8.77912C51.81 8.08641 51.6301 7.54439 51.2702 7.15305C50.9149 6.76172 50.4223 6.56605 49.7926 6.56605C49.3653 6.56605 48.9852 6.66051 48.6523 6.84943C48.324 7.03385 48.0653 7.30149 47.8764 7.65234C47.692 8.0032 47.5998 8.42827 47.5998 8.92756ZM61.3235 15.2024C60.2844 15.2024 59.3871 14.9865 58.6314 14.5547C57.8802 14.1184 57.3022 13.5021 56.8974 12.706C56.4925 11.9053 56.2901 10.9629 56.2901 9.87891C56.2901 8.81286 56.4925 7.87725 56.8974 7.07209C57.3067 6.26243 57.878 5.63269 58.6112 5.18288C59.3443 4.72857 60.2057 4.50142 61.1953 4.50142C61.834 4.50142 62.4368 4.60488 63.0036 4.81179C63.5748 5.0142 64.0786 5.32907 64.5149 5.75639C64.9557 6.18371 65.3021 6.72798 65.554 7.3892C65.8059 8.04593 65.9318 8.8286 65.9318 9.73722V10.4862H57.4371V8.83984H63.5906C63.5861 8.37204 63.4848 7.95597 63.2869 7.59162C63.089 7.22277 62.8124 6.93265 62.457 6.72124C62.1062 6.50982 61.6969 6.40412 61.229 6.40412C60.7298 6.40412 60.2912 6.52557 59.9134 6.76847C59.5355 7.00687 59.2409 7.32173 59.0295 7.71307C58.8226 8.0999 58.7169 8.52498 58.7124 8.98828V10.4254C58.7124 11.0282 58.8226 11.5455 59.043 11.9773C59.2634 12.4046 59.5715 12.733 59.9673 12.9624C60.3632 13.1873 60.8265 13.2997 61.3572 13.2997C61.7126 13.2997 62.0342 13.2502 62.3221 13.1513C62.61 13.0478 62.8596 12.8971 63.071 12.6992C63.2824 12.5013 63.4421 12.2562 63.5501 11.9638L65.8306 12.2202C65.6867 12.8229 65.4123 13.3492 65.0075 13.799C64.6071 14.2443 64.0943 14.5907 63.4691 14.8381C62.8439 15.081 62.1287 15.2024 61.3235 15.2024ZM76.1892 7.37571L73.9626 7.61861C73.8997 7.3937 73.7894 7.18229 73.632 6.98438C73.4791 6.78646 73.2722 6.62678 73.0113 6.50533C72.7504 6.38388 72.431 6.32315 72.0532 6.32315C71.5449 6.32315 71.1176 6.43336 70.7712 6.65376C70.4294 6.87417 70.2607 7.1598 70.2652 7.51065C70.2607 7.81203 70.3709 8.05717 70.5958 8.24609C70.8252 8.43501 71.203 8.5902 71.7293 8.71165L73.4971 9.08949C74.4777 9.3009 75.2064 9.63601 75.6832 10.0948C76.1644 10.5536 76.4073 11.1541 76.4118 11.8963C76.4073 12.5485 76.2162 13.1243 75.8383 13.6236C75.465 14.1184 74.9455 14.5052 74.2797 14.7841C73.614 15.063 72.8493 15.2024 71.9857 15.2024C70.7172 15.2024 69.6962 14.937 68.9225 14.4062C68.1488 13.871 67.6878 13.1265 67.5393 12.1729L69.9211 11.9435C70.029 12.4113 70.2584 12.7644 70.6093 13.0028C70.9601 13.2412 71.4167 13.3604 71.979 13.3604C72.5592 13.3604 73.0248 13.2412 73.3756 13.0028C73.731 12.7644 73.9086 12.4698 73.9086 12.119C73.9086 11.8221 73.7939 11.5769 73.5645 11.3835C73.3396 11.1901 72.9888 11.0417 72.512 10.9382L70.7442 10.5671C69.7501 10.3602 69.0147 10.0116 68.5379 9.52131C68.0611 9.02651 67.825 8.40128 67.8295 7.6456C67.825 7.00687 67.9981 6.4536 68.349 5.98579C68.7043 5.51349 69.1969 5.14915 69.8266 4.89276C70.4608 4.63187 71.1918 4.50142 72.0194 4.50142C73.2339 4.50142 74.1898 4.76006 74.887 5.27734C75.5887 5.79463 76.0228 6.49408 76.1892 7.37571ZM83.0139 15.2024C81.9749 15.2024 81.0775 14.9865 80.3218 14.5547C79.5706 14.1184 78.9926 13.5021 78.5878 12.706C78.183 11.9053 77.9806 10.9629 77.9806 9.87891C77.9806 8.81286 78.183 7.87725 78.5878 7.07209C78.9971 6.26243 79.5684 5.63269 80.3016 5.18288C81.0348 4.72857 81.8962 4.50142 82.8857 4.50142C83.5245 4.50142 84.1272 4.60488 84.694 4.81179C85.2652 5.0142 85.769 5.32907 86.2053 5.75639C86.6462 6.18371 86.9925 6.72798 87.2444 7.3892C87.4963 8.04593 87.6222 8.8286 87.6222 9.73722V10.4862H79.1276V8.83984H85.281C85.2765 8.37204 85.1753 7.95597 84.9774 7.59162C84.7794 7.22277 84.5028 6.93265 84.1475 6.72124C83.7966 6.50982 83.3873 6.40412 82.9195 6.40412C82.4202 6.40412 81.9816 6.52557 81.6038 6.76847C81.2259 7.00687 80.9313 7.32173 80.7199 7.71307C80.513 8.0999 80.4073 8.52498 80.4028 8.98828V10.4254C80.4028 11.0282 80.513 11.5455 80.7334 11.9773C80.9538 12.4046 81.2619 12.733 81.6578 12.9624C82.0536 13.1873 82.5169 13.2997 83.0477 13.2997C83.403 13.2997 83.7246 13.2502 84.0125 13.1513C84.3004 13.0478 84.55 12.8971 84.7615 12.6992C84.9729 12.5013 85.1325 12.2562 85.2405 11.9638L87.521 12.2202C87.3771 12.8229 87.1027 13.3492 86.6979 13.799C86.2976 14.2443 85.7848 14.5907 85.1595 14.8381C84.5343 15.081 83.8191 15.2024 83.0139 15.2024ZM106.337 5.8441H103.814C103.742 5.43028 103.609 5.06368 103.416 4.74432C103.222 4.42045 102.982 4.14607 102.694 3.92116C102.406 3.69626 102.077 3.52758 101.709 3.41513C101.344 3.29818 100.951 3.2397 100.528 3.2397C99.7767 3.2397 99.111 3.42862 98.5307 3.80646C97.9505 4.17981 97.4962 4.72857 97.1678 5.45277C96.8394 6.17247 96.6752 7.05185 96.6752 8.09091C96.6752 9.14796 96.8394 10.0386 97.1678 10.7628C97.5007 11.4825 97.955 12.0268 98.5307 12.3956C99.111 12.7599 99.7744 12.9421 100.521 12.9421C100.935 12.9421 101.322 12.8881 101.682 12.7802C102.046 12.6677 102.372 12.5036 102.66 12.2876C102.952 12.0717 103.198 11.8063 103.395 11.4915C103.598 11.1766 103.737 10.8168 103.814 10.4119L106.337 10.4254C106.243 11.0821 106.038 11.6984 105.723 12.2741C105.413 12.8499 105.006 13.3582 104.502 13.799C103.998 14.2353 103.409 14.5772 102.734 14.8246C102.059 15.0675 101.311 15.1889 100.487 15.1889C99.2729 15.1889 98.1889 14.9078 97.2353 14.3455C96.2817 13.7833 95.5305 12.9714 94.9817 11.9098C94.4329 10.8482 94.1586 9.57528 94.1586 8.09091C94.1586 6.60204 94.4352 5.32907 94.9885 4.27202C95.5417 3.21046 96.2952 2.39856 97.2488 1.83629C98.2024 1.27403 99.2819 0.992897 100.487 0.992897C101.257 0.992897 101.972 1.10085 102.633 1.31676C103.294 1.53267 103.883 1.84979 104.401 2.26811C104.918 2.68194 105.343 3.19022 105.676 3.79297C106.013 4.39122 106.234 5.07493 106.337 5.8441ZM108.522 15V4.63636H110.964V15H108.522ZM109.75 3.16548C109.363 3.16548 109.03 3.03729 108.751 2.78089C108.472 2.52 108.333 2.20739 108.333 1.84304C108.333 1.47419 108.472 1.16158 108.751 0.905184C109.03 0.644294 109.363 0.513849 109.75 0.513849C110.141 0.513849 110.474 0.644294 110.748 0.905184C111.027 1.16158 111.166 1.47419 111.166 1.84304C111.166 2.20739 111.027 2.52 110.748 2.78089C110.474 3.03729 110.141 3.16548 109.75 3.16548ZM122.733 4.63636L119.042 15H116.343L112.653 4.63636H115.257L117.639 12.3349H117.747L120.135 4.63636H122.733ZM124.423 15V4.63636H126.865V15H124.423ZM125.651 3.16548C125.264 3.16548 124.931 3.03729 124.652 2.78089C124.373 2.52 124.234 2.20739 124.234 1.84304C124.234 1.47419 124.373 1.16158 124.652 0.905184C124.931 0.644294 125.264 0.513849 125.651 0.513849C126.042 0.513849 126.375 0.644294 126.65 0.905184C126.928 1.16158 127.068 1.47419 127.068 1.84304C127.068 2.20739 126.928 2.52 126.65 2.78089C126.375 3.03729 126.042 3.16548 125.651 3.16548ZM131.82 1.18182V15H129.377V1.18182H131.82ZM143.835 15H139.152V1.18182H143.929C145.301 1.18182 146.479 1.45845 147.464 2.01172C148.454 2.56049 149.214 3.3499 149.745 4.37997C150.276 5.41004 150.541 6.64252 150.541 8.07741C150.541 9.51681 150.274 10.7538 149.738 11.7884C149.208 12.8229 148.441 13.6168 147.438 14.1701C146.439 14.7234 145.238 15 143.835 15ZM141.655 12.8342H143.713C144.676 12.8342 145.479 12.6587 146.122 12.3079C146.765 11.9525 147.249 11.424 147.572 10.7223C147.896 10.0161 148.058 9.13447 148.058 8.07741C148.058 7.02036 147.896 6.14323 147.572 5.44602C147.249 4.74432 146.77 4.22029 146.135 3.87393C145.506 3.52308 144.723 3.34766 143.787 3.34766H141.655V12.8342ZM157.4 15.2024C156.361 15.2024 155.463 14.9865 154.708 14.5547C153.956 14.1184 153.378 13.5021 152.974 12.706C152.569 11.9053 152.366 10.9629 152.366 9.87891C152.366 8.81286 152.569 7.87725 152.974 7.07209C153.383 6.26243 153.954 5.63269 154.687 5.18288C155.421 4.72857 156.282 4.50142 157.271 4.50142C157.91 4.50142 158.513 4.60488 159.08 4.81179C159.651 5.0142 160.155 5.32907 160.591 5.75639C161.032 6.18371 161.378 6.72798 161.63 7.3892C161.882 8.04593 162.008 8.8286 162.008 9.73722V10.4862H153.513V8.83984H159.667C159.662 8.37204 159.561 7.95597 159.363 7.59162C159.165 7.22277 158.889 6.93265 158.533 6.72124C158.182 6.50982 157.773 6.40412 157.305 6.40412C156.806 6.40412 156.367 6.52557 155.99 6.76847C155.612 7.00687 155.317 7.32173 155.106 7.71307C154.899 8.0999 154.793 8.52498 154.789 8.98828V10.4254C154.789 11.0282 154.899 11.5455 155.119 11.9773C155.34 12.4046 155.648 12.733 156.044 12.9624C156.439 13.1873 156.903 13.2997 157.433 13.2997C157.789 13.2997 158.11 13.2502 158.398 13.1513C158.686 13.0478 158.936 12.8971 159.147 12.6992C159.359 12.5013 159.518 12.2562 159.626 11.9638L161.907 12.2202C161.763 12.8229 161.488 13.3492 161.084 13.799C160.683 14.2443 160.171 14.5907 159.545 14.8381C158.92 15.081 158.205 15.2024 157.4 15.2024ZM169.324 4.63636V6.52557H163.197V4.63636H169.324ZM164.729 15V3.65802C164.729 2.96082 164.873 2.38056 165.161 1.91726C165.453 1.45395 165.844 1.1076 166.335 0.878195C166.825 0.648792 167.369 0.53409 167.967 0.53409C168.39 0.53409 168.766 0.567826 169.094 0.635298C169.423 0.70277 169.665 0.763494 169.823 0.817471L169.337 2.70668C169.234 2.67519 169.103 2.6437 168.946 2.61221C168.788 2.57623 168.613 2.55824 168.419 2.55824C167.965 2.55824 167.644 2.66844 167.455 2.88885C167.27 3.10476 167.178 3.41513 167.178 3.81996V15H164.729ZM175.435 15.2024C174.396 15.2024 173.498 14.9865 172.743 14.5547C171.992 14.1184 171.414 13.5021 171.009 12.706C170.604 11.9053 170.401 10.9629 170.401 9.87891C170.401 8.81286 170.604 7.87725 171.009 7.07209C171.418 6.26243 171.989 5.63269 172.722 5.18288C173.456 4.72857 174.317 4.50142 175.307 4.50142C175.945 4.50142 176.548 4.60488 177.115 4.81179C177.686 5.0142 178.19 5.32907 178.626 5.75639C179.067 6.18371 179.413 6.72798 179.665 7.3892C179.917 8.04593 180.043 8.8286 180.043 9.73722V10.4862H171.548V8.83984H177.702C177.697 8.37204 177.596 7.95597 177.398 7.59162C177.2 7.22277 176.924 6.93265 176.568 6.72124C176.218 6.50982 175.808 6.40412 175.34 6.40412C174.841 6.40412 174.403 6.52557 174.025 6.76847C173.647 7.00687 173.352 7.32173 173.141 7.71307C172.934 8.0999 172.828 8.52498 172.824 8.98828V10.4254C172.824 11.0282 172.934 11.5455 173.154 11.9773C173.375 12.4046 173.683 12.733 174.079 12.9624C174.474 13.1873 174.938 13.2997 175.469 13.2997C175.824 13.2997 176.146 13.2502 176.433 13.1513C176.721 13.0478 176.971 12.8971 177.182 12.6992C177.394 12.5013 177.553 12.2562 177.661 11.9638L179.942 12.2202C179.798 12.8229 179.524 13.3492 179.119 13.799C178.718 14.2443 178.206 14.5907 177.58 14.8381C176.955 15.081 176.24 15.2024 175.435 15.2024ZM184.552 8.92756V15H182.109V4.63636H184.444V6.39737H184.565C184.804 5.81712 185.184 5.35606 185.706 5.0142C186.232 4.67235 186.882 4.50142 187.656 4.50142C188.371 4.50142 188.994 4.65436 189.525 4.96023C190.06 5.2661 190.474 5.70916 190.766 6.28942C191.063 6.86967 191.209 7.57363 191.205 8.40128V15H188.762V8.77912C188.762 8.08641 188.582 7.54439 188.222 7.15305C187.867 6.76172 187.374 6.56605 186.745 6.56605C186.317 6.56605 185.937 6.66051 185.604 6.84943C185.276 7.03385 185.017 7.30149 184.829 7.65234C184.644 8.0032 184.552 8.42827 184.552 8.92756ZM201.879 7.37571L199.652 7.61861C199.589 7.3937 199.479 7.18229 199.321 6.98438C199.169 6.78646 198.962 6.62678 198.701 6.50533C198.44 6.38388 198.12 6.32315 197.743 6.32315C197.234 6.32315 196.807 6.43336 196.461 6.65376C196.119 6.87417 195.95 7.1598 195.955 7.51065C195.95 7.81203 196.06 8.05717 196.285 8.24609C196.515 8.43501 196.892 8.5902 197.419 8.71165L199.187 9.08949C200.167 9.3009 200.896 9.63601 201.373 10.0948C201.854 10.5536 202.097 11.1541 202.101 11.8963C202.097 12.5485 201.906 13.1243 201.528 13.6236C201.154 14.1184 200.635 14.5052 199.969 14.7841C199.303 15.063 198.539 15.2024 197.675 15.2024C196.407 15.2024 195.386 14.937 194.612 14.4062C193.838 13.871 193.377 13.1265 193.229 12.1729L195.611 11.9435C195.718 12.4113 195.948 12.7644 196.299 13.0028C196.65 13.2412 197.106 13.3604 197.668 13.3604C198.249 13.3604 198.714 13.2412 199.065 13.0028C199.42 12.7644 199.598 12.4698 199.598 12.119C199.598 11.8221 199.483 11.5769 199.254 11.3835C199.029 11.1901 198.678 11.0417 198.201 10.9382L196.434 10.5671C195.44 10.3602 194.704 10.0116 194.227 9.52131C193.751 9.02651 193.514 8.40128 193.519 7.6456C193.514 7.00687 193.688 6.4536 194.038 5.98579C194.394 5.51349 194.886 5.14915 195.516 4.89276C196.15 4.63187 196.881 4.50142 197.709 4.50142C198.923 4.50142 199.879 4.76006 200.576 5.27734C201.278 5.79463 201.712 6.49408 201.879 7.37571ZM208.703 15.2024C207.664 15.2024 206.767 14.9865 206.011 14.5547C205.26 14.1184 204.682 13.5021 204.277 12.706C203.872 11.9053 203.67 10.9629 203.67 9.87891C203.67 8.81286 203.872 7.87725 204.277 7.07209C204.687 6.26243 205.258 5.63269 205.991 5.18288C206.724 4.72857 207.586 4.50142 208.575 4.50142C209.214 4.50142 209.817 4.60488 210.383 4.81179C210.955 5.0142 211.458 5.32907 211.895 5.75639C212.336 6.18371 212.682 6.72798 212.934 7.3892C213.186 8.04593 213.312 8.8286 213.312 9.73722V10.4862H204.817V8.83984H210.97C210.966 8.37204 210.865 7.95597 210.667 7.59162C210.469 7.22277 210.192 6.93265 209.837 6.72124C209.486 6.50982 209.077 6.40412 208.609 6.40412C208.11 6.40412 207.671 6.52557 207.293 6.76847C206.915 7.00687 206.621 7.32173 206.409 7.71307C206.202 8.0999 206.097 8.52498 206.092 8.98828V10.4254C206.092 11.0282 206.202 11.5455 206.423 11.9773C206.643 12.4046 206.951 12.733 207.347 12.9624C207.743 13.1873 208.206 13.2997 208.737 13.2997C209.092 13.2997 209.414 13.2502 209.702 13.1513C209.99 13.0478 210.239 12.8971 210.451 12.6992C210.662 12.5013 210.822 12.2562 210.93 11.9638L213.21 12.2202C213.067 12.8229 212.792 13.3492 212.387 13.799C211.987 14.2443 211.474 14.5907 210.849 14.8381C210.224 15.081 209.509 15.2024 208.703 15.2024Z" fill="black"/>
</svg>
