<svg width="23" height="32" viewBox="0 0 23 32" fill="none" xmlns="http://www.w3.org/2000/svg">
<path d="M13.4167 8.5V0H1.4375C0.640885 0 0 0.66875 0 1.5V30.5C0 31.3312 0.640885 32 1.4375 32H21.5625C22.3591 32 23 31.3312 23 30.5V10H14.8542C14.0635 10 13.4167 9.325 13.4167 8.5ZM17.3207 22.0006H13.4167V27.0006C13.4167 27.5531 12.9878 28.0006 12.4583 28.0006H10.5417C10.0122 28.0006 9.58333 27.5531 9.58333 27.0006V22.0006H5.67932C4.82401 22.0006 4.39695 20.92 5.0043 20.2906L10.7795 14.3094C11.1778 13.8962 11.821 13.8962 12.2193 14.3094L17.9945 20.2906C18.6024 20.92 18.176 22.0006 17.3207 22.0006ZM22.5807 6.5625L16.7169 0.4375C16.4474 0.15625 16.082 0 15.6987 0H15.3333V8H23V7.61875C23 7.225 22.8503 6.84375 22.5807 6.5625Z" fill="#CACACA"/>
</svg>
