<svg width="26" height="21" viewBox="0 0 26 21" fill="none" xmlns="http://www.w3.org/2000/svg">
<path d="M12.9999 16.4062C9.91848 16.4062 7.42411 13.9982 7.19458 10.9467L2.93303 7.62155C2.37281 8.33112 1.85728 9.08128 1.44128 9.90159C1.34835 10.0872 1.29993 10.2922 1.29993 10.5002C1.29993 10.7082 1.34835 10.9132 1.44128 11.0988C3.64437 15.4386 8.00586 18.3749 12.9999 18.3749C14.0931 18.3749 15.1477 18.2109 16.1641 17.9459L14.0561 16.2991C13.708 16.367 13.3544 16.4029 12.9999 16.4062ZM25.7488 18.7892L21.2577 15.2848C22.6219 14.1241 23.744 12.701 24.5585 11.0984C24.6514 10.9128 24.6998 10.7078 24.6998 10.4998C24.6998 10.2918 24.6514 10.0868 24.5585 9.90118C22.3554 5.56136 17.9939 2.62508 12.9999 2.62508C10.9083 2.62764 8.8507 3.15925 7.01502 4.17135L1.84672 0.138329C1.77932 0.0853814 1.70225 0.0463607 1.61992 0.0234966C1.53758 0.00063257 1.45158 -0.00562668 1.36685 0.00507655C1.28211 0.0157798 1.2003 0.0432357 1.12608 0.0858753C1.05185 0.128515 0.986682 0.185503 0.934284 0.253582L0.136818 1.29004C0.0310302 1.42743 -0.0163726 1.60162 0.00503509 1.7743C0.0264428 1.94697 0.114908 2.104 0.250974 2.21083L24.153 20.8617C24.2204 20.9146 24.2975 20.9536 24.3798 20.9765C24.4622 20.9994 24.5482 21.0056 24.6329 20.9949C24.7176 20.9842 24.7994 20.9568 24.8737 20.9141C24.9479 20.8715 25.0131 20.8145 25.0655 20.7464L25.8633 19.71C25.9691 19.5725 26.0164 19.3983 25.9949 19.2256C25.9734 19.0529 25.8849 18.8959 25.7488 18.7892ZM18.2852 12.965L16.6886 11.719C16.8231 11.3266 16.8944 10.9151 16.8999 10.5C16.9078 9.89226 16.7744 9.29112 16.5105 8.74485C16.2466 8.19859 15.8594 7.72243 15.3801 7.35463C14.9009 6.98683 14.3429 6.73764 13.7509 6.62707C13.1589 6.5165 12.5495 6.54764 11.9717 6.71799C12.2166 7.05312 12.3491 7.45851 12.3499 7.87503C12.3438 8.01363 12.3228 8.15116 12.2873 8.28518L9.29692 5.95182C10.3357 5.07541 11.6461 4.59482 12.9999 4.59381C13.7682 4.59338 14.5291 4.74585 15.2391 5.04251C15.949 5.33917 16.5941 5.77421 17.1374 6.32273C17.6807 6.87126 18.1116 7.52252 18.4054 8.23929C18.6993 8.95606 18.8503 9.72427 18.8499 10.5C18.8499 11.3872 18.6349 12.214 18.2852 12.9654V12.965Z" fill="#5F5F5F"/>
</svg>
